# xmcd
#
# Track frame offsets:
# 182
# 10507
# 31640
# 41602
# 57865
# 81725
# 100277
# 115290
# 134452
# 151770
# 164515
#
# Disc length: 2428 seconds
#
#
# Revision: 6
# Processed by: cddbd v1.5.1PL2 Copyright (c) Steve Scherf et al.
# Submitted via: FreeRIP 2.945 
#
DISCID=84097a0b
DTITLE=John Mayall - A Sense Of Place
DYEAR=1990
DGENRE=Blues
TTITLE0=I Want To Go
TTITLE1=Congo Square
TTITLE2=Send Me Down To Vicksburg
TTITLE3=Without Her
TTITLE4=Sensitive Kind
TTITLE5=Jacksboro Highway
TTITLE6=Let's Work Together
TTITLE7=I Can't Complain
TTITLE8=Black Cat Moan
TTITLE9=Sugarcane
TTITLE10=All My Life
EXTD=
EXTT0=
EXTT1=
EXTT2=
EXTT3=
EXTT4=
EXTT5=
EXTT6=
EXTT7=
EXTT8=
EXTT9=
EXTT10=
PLAYORDER=
